<?xml version="1.0" encoding="utf-8"?>
<svg version="1.1" xmlns="http://www.w3.org/2000/svg" xmlns:xlink="http://www.w3.org/1999/xlink" x="0px" y="0px" viewBox="0 0 157.3 215.8" style="enable-background:new 0 0 157.3 215.8;" xml:space="preserve">
	<style type="text/css">
	.st0{fill:#FFFFFF;}
</style>
	<path class="st0" d="M135,126.1c-1.3-4.1-3-8.9-4.8-13.6c0,0,0,0,0,0c0,0,0,0,0,0l-6.5-16.2c0-0.2,0.1-3.4,0.1-5
	c0-27.6-13-55.4-45.1-55.4c-32.1,0-45.1,27.8-45.1,55.4c0,1.6,0.1,4.8,0.1,5c0,0,0,0,0,0c0,0,0,0,0,0l-6.5,16.2c0,0,0,0,0,0
	c0,0,0,0,0,0c-1.8,4.6-3.5,9.4-4.8,13.6c-6.1,19.7-4.1,27.8-2.6,28c3.2,0.4,12.6-14.8,12.6-14.8c0,8.8,4.5,20.3,14.4,28.6
	c-3.7,1.1-8.2,2.9-11.1,5c-2.6,1.9-2.3,3.9-1.8,4.7c2.1,3.5,35.3,2.2,44.9,1.1c9.6,1.1,42.8,2.3,44.9-1.1c0.5-0.8,0.8-2.7-1.8-4.7
	c-2.9-2.1-7.4-3.9-11.1-5c9.8-8.3,14.4-19.8,14.4-28.6c0,0,9.4,15.2,12.6,14.8C139.1,153.9,141.1,145.8,135,126.1z" />
</svg>